<svg xmlns="http://www.w3.org/2000/svg" xmlns:xlink="http://www.w3.org/1999/xlink" width="500" zoomAndPan="magnify" viewBox="0 0 375 374.999991" height="500" preserveAspectRatio="xMidYMid meet" version="1.0"><defs><g/><clipPath id="32c209be28"><path d="M 196 180 L 273 180 L 273 237 L 196 237 Z M 196 180 " clip-rule="nonzero"/></clipPath><clipPath id="6a7f640f8f"><path d="M 207.972656 176.613281 L 273.480469 189.417969 L 261.972656 248.304688 L 196.460938 235.496094 Z M 207.972656 176.613281 " clip-rule="nonzero"/></clipPath><clipPath id="0e7b4a29f8"><path d="M 207.972656 176.613281 L 273.480469 189.417969 L 261.972656 248.304688 L 196.460938 235.496094 Z M 207.972656 176.613281 " clip-rule="nonzero"/></clipPath></defs><rect x="-37.5" width="450" fill="#ffffff" y="-37.499999" height="449.999989" fill-opacity="1"/><rect x="-37.5" width="450" fill="#000000" y="-37.499999" height="449.999989" fill-opacity="1"/><g clip-path="url(#32c209be28)"><g clip-path="url(#6a7f640f8f)"><g clip-path="url(#0e7b4a29f8)"><path fill="#ffffff" d="M 269.605469 195.558594 C 269.609375 195.558594 269.609375 195.5625 269.609375 195.574219 C 269.613281 195.617188 269.597656 195.683594 269.582031 195.722656 C 269.578125 195.734375 269.574219 195.738281 269.570312 195.738281 C 269.5625 195.734375 269.566406 195.703125 269.574219 195.644531 C 269.585938 195.589844 269.597656 195.554688 269.605469 195.558594 Z M 230.140625 180.945312 C 230.042969 180.925781 229.972656 180.941406 229.882812 180.984375 C 229.78125 181.039062 229.75 181.085938 229.722656 181.242188 C 229.691406 181.410156 229.703125 181.453125 229.816406 181.613281 C 229.886719 181.714844 230.023438 181.90625 230.121094 182.039062 C 230.210938 182.167969 230.347656 182.394531 230.410156 182.535156 C 230.476562 182.679688 230.570312 182.820312 230.617188 182.863281 C 230.664062 182.902344 230.695312 182.953125 230.691406 182.980469 C 230.683594 183.007812 230.707031 183.085938 230.746094 183.15625 L 230.8125 183.28125 L 230.695312 183.386719 C 230.636719 183.445312 230.578125 183.484375 230.558594 183.480469 C 230.558594 183.480469 230.558594 183.480469 230.554688 183.480469 C 230.390625 183.34375 229.933594 183.078125 229.691406 182.984375 C 229.589844 182.941406 229.417969 182.875 229.304688 182.828125 C 229.007812 182.710938 228.726562 182.5625 228.550781 182.421875 C 228.464844 182.355469 228.320312 182.289062 228.230469 182.269531 C 228.230469 182.269531 228.226562 182.269531 228.226562 182.269531 C 228.089844 182.242188 228.042969 182.257812 227.945312 182.351562 C 227.792969 182.496094 227.699219 182.785156 227.761719 182.929688 C 227.8125 183.054688 228.355469 183.421875 228.546875 183.457031 C 228.609375 183.472656 228.765625 183.5625 228.886719 183.652344 C 229.007812 183.75 229.140625 183.832031 229.171875 183.839844 C 229.207031 183.84375 229.328125 183.894531 229.4375 183.949219 C 229.546875 184.007812 229.714844 184.089844 229.808594 184.132812 C 229.957031 184.207031 229.976562 184.222656 229.917969 184.269531 C 229.886719 184.296875 229.851562 184.304688 229.796875 184.296875 C 229.773438 184.289062 229.742188 184.28125 229.710938 184.265625 C 229.53125 184.203125 228.019531 183.855469 227.351562 183.726562 C 227.203125 183.695312 227.09375 183.679688 227.054688 183.675781 C 226.828125 183.664062 226.773438 183.722656 226.710938 184.050781 C 226.640625 184.4375 226.691406 184.496094 227.210938 184.640625 C 227.445312 184.707031 227.832031 184.816406 228.070312 184.882812 C 228.308594 184.953125 228.753906 185.054688 229.0625 185.121094 L 229.617188 185.226562 L 229.542969 185.304688 C 229.5 185.351562 229.433594 185.394531 229.398438 185.40625 C 229.296875 185.429688 228.921875 185.449219 228.679688 185.4375 C 228.5625 185.433594 228.355469 185.445312 228.214844 185.46875 C 228.074219 185.488281 227.753906 185.488281 227.5 185.472656 C 226.851562 185.417969 226.820312 185.429688 226.742188 185.742188 C 226.695312 185.949219 226.695312 186.011719 226.75 186.109375 C 226.808594 186.207031 226.824219 186.226562 227.171875 186.292969 C 227.265625 186.3125 227.375 186.332031 227.519531 186.359375 C 228.257812 186.492188 228.917969 186.53125 229.199219 186.460938 C 229.316406 186.429688 229.453125 186.4375 229.757812 186.496094 C 229.777344 186.5 229.800781 186.503906 229.824219 186.511719 C 230.234375 186.59375 230.3125 186.621094 230.480469 186.753906 C 230.585938 186.832031 230.679688 186.917969 230.6875 186.941406 C 230.703125 186.988281 230.550781 187.300781 230.441406 187.429688 C 230.40625 187.480469 230.308594 187.554688 230.230469 187.597656 C 230.007812 187.734375 229.863281 188.136719 229.847656 188.695312 C 229.832031 189.191406 229.863281 189.300781 230.136719 189.355469 C 230.175781 189.363281 230.222656 189.371094 230.273438 189.375 L 230.480469 189.402344 L 230.546875 189.113281 C 230.605469 188.8125 230.699219 188.550781 230.753906 188.523438 C 230.8125 188.492188 231.121094 188.207031 231.128906 188.179688 C 231.140625 188.105469 231.828125 187.773438 231.925781 187.792969 C 231.941406 187.796875 232.027344 187.761719 232.105469 187.714844 C 232.273438 187.617188 232.378906 187.59375 232.667969 187.582031 C 232.777344 187.582031 232.957031 187.554688 233.058594 187.53125 C 233.167969 187.503906 233.277344 187.488281 233.304688 187.492188 C 233.335938 187.5 233.441406 187.441406 233.539062 187.359375 C 233.738281 187.203125 233.828125 187.199219 234.882812 187.257812 C 235.671875 187.304688 235.867188 187.328125 237.0625 187.550781 C 237.175781 187.574219 237.28125 187.59375 237.382812 187.613281 C 238.386719 187.808594 238.683594 187.894531 239.085938 188.085938 C 239.390625 188.234375 239.523438 188.289062 240.128906 188.519531 C 240.320312 188.589844 240.617188 188.707031 240.796875 188.773438 C 241.265625 188.960938 241.726562 189.089844 242.367188 189.214844 C 242.554688 189.253906 242.761719 189.289062 242.988281 189.328125 L 243.957031 189.488281 L 244.042969 189.601562 C 244.089844 189.667969 244.242188 189.855469 244.375 190.019531 C 244.511719 190.183594 244.75 190.511719 244.914062 190.75 C 245.199219 191.179688 245.570312 191.664062 245.65625 191.722656 C 245.679688 191.738281 245.734375 191.800781 245.785156 191.863281 C 245.9375 192.070312 246.109375 192.269531 246.320312 192.46875 C 246.433594 192.578125 246.550781 192.710938 246.582031 192.765625 C 246.617188 192.820312 246.675781 192.871094 246.71875 192.878906 C 246.761719 192.886719 246.792969 192.933594 246.804688 192.976562 C 246.808594 193.027344 246.835938 193.078125 246.867188 193.097656 C 246.976562 193.160156 246.886719 193.378906 246.671875 193.578125 C 246.558594 193.679688 246.421875 193.824219 246.363281 193.894531 C 246.304688 193.964844 246.1875 194.085938 246.101562 194.15625 C 246.015625 194.226562 245.886719 194.335938 245.816406 194.402344 C 245.632812 194.5625 245.511719 194.644531 245.289062 194.769531 C 244.765625 195.054688 244.308594 195.34375 244.007812 195.578125 C 243.925781 195.644531 243.65625 195.84375 243.414062 196.027344 C 243.164062 196.207031 242.964844 196.371094 242.960938 196.390625 C 242.957031 196.421875 242.75 196.605469 242.542969 196.761719 C 242.472656 196.8125 242.304688 196.949219 242.167969 197.066406 C 242.035156 197.179688 241.679688 197.441406 241.382812 197.648438 C 241.089844 197.855469 240.722656 198.125 240.566406 198.253906 C 240.414062 198.378906 240.265625 198.484375 240.25 198.488281 C 240.230469 198.492188 240.148438 198.582031 240.070312 198.683594 C 239.992188 198.785156 239.910156 198.863281 239.890625 198.859375 C 239.875 198.855469 239.773438 198.949219 239.675781 199.066406 C 239.363281 199.441406 239.25 199.5625 239.113281 199.65625 C 239.039062 199.710938 238.976562 199.769531 238.96875 199.796875 C 238.960938 199.832031 238.558594 200.160156 238.292969 200.339844 C 238.21875 200.390625 238.136719 200.476562 238.109375 200.535156 C 238.085938 200.59375 238.023438 200.652344 237.980469 200.664062 C 237.933594 200.679688 237.878906 200.722656 237.851562 200.765625 C 237.832031 200.804688 237.757812 200.839844 237.695312 200.839844 C 237.445312 200.84375 237.011719 201.148438 236.882812 201.40625 C 236.804688 201.566406 236.296875 201.949219 236.1875 201.925781 C 236.152344 201.917969 235.992188 201.957031 235.832031 202.011719 C 235.601562 202.085938 235.515625 202.140625 235.414062 202.273438 C 235.285156 202.449219 235.160156 202.523438 234.972656 202.53125 C 234.902344 202.535156 234.816406 202.589844 234.75 202.679688 C 234.691406 202.753906 234.566406 202.867188 234.472656 202.917969 C 234.378906 202.972656 234.277344 203.035156 234.246094 203.054688 C 234.132812 203.132812 233.714844 203.230469 233.59375 203.207031 C 233.527344 203.195312 233.453125 203.199219 233.433594 203.222656 C 233.417969 203.238281 233.273438 203.300781 233.113281 203.355469 C 232.953125 203.40625 232.765625 203.488281 232.703125 203.53125 C 232.640625 203.582031 232.480469 203.628906 232.347656 203.644531 C 232.175781 203.660156 232.089844 203.695312 232.042969 203.761719 C 232.007812 203.8125 231.925781 203.855469 231.863281 203.863281 C 231.800781 203.863281 231.714844 203.882812 231.675781 203.90625 C 231.636719 203.933594 231.488281 203.972656 231.347656 204.007812 C 231.210938 204.039062 231.054688 204.101562 230.996094 204.152344 C 230.9375 204.203125 230.871094 204.246094 230.839844 204.246094 C 230.765625 204.261719 230.441406 204.445312 230.117188 204.667969 C 229.675781 204.96875 229.609375 205.019531 229.511719 205.148438 C 229.460938 205.214844 229.402344 205.269531 229.382812 205.265625 C 229.359375 205.261719 229.3125 205.3125 229.261719 205.382812 C 229.222656 205.449219 229.105469 205.582031 229.007812 205.675781 C 228.910156 205.773438 228.828125 205.863281 228.824219 205.878906 C 228.824219 205.894531 228.722656 206.035156 228.601562 206.191406 C 228.480469 206.355469 228.324219 206.601562 228.253906 206.742188 C 228.183594 206.886719 228.101562 207.035156 228.074219 207.078125 C 227.976562 207.226562 227.785156 207.695312 227.753906 207.847656 C 227.738281 207.9375 227.683594 208.054688 227.636719 208.117188 C 227.59375 208.171875 227.539062 208.289062 227.527344 208.367188 C 227.511719 208.449219 227.46875 208.550781 227.429688 208.59375 C 227.359375 208.679688 227.242188 208.96875 227.164062 209.25 C 227.097656 209.496094 227.042969 209.570312 226.917969 209.609375 C 226.851562 209.632812 226.796875 209.683594 226.785156 209.742188 C 226.777344 209.792969 226.714844 209.855469 226.652344 209.878906 C 226.589844 209.90625 226.511719 209.980469 226.480469 210.042969 C 226.417969 210.160156 226.152344 210.402344 225.921875 210.542969 C 225.84375 210.589844 225.648438 210.71875 225.496094 210.820312 C 225.335938 210.929688 225.195312 211.015625 225.183594 211.015625 C 225.160156 211.007812 224.125 211.703125 223.800781 211.945312 C 223.699219 212.019531 223.585938 212.121094 223.546875 212.167969 C 223.507812 212.214844 223.40625 212.3125 223.316406 212.382812 C 223.226562 212.457031 223.132812 212.539062 223.097656 212.570312 C 223.070312 212.605469 222.914062 212.753906 222.75 212.898438 C 222.398438 213.21875 222.199219 213.410156 221.976562 213.675781 C 221.886719 213.78125 221.757812 213.921875 221.695312 213.976562 C 221.625 214.039062 221.570312 214.109375 221.5625 214.128906 C 221.558594 214.15625 221.5 214.21875 221.433594 214.273438 C 221.367188 214.328125 221.257812 214.449219 221.183594 214.539062 C 221.113281 214.632812 221.019531 214.734375 220.976562 214.757812 C 220.9375 214.785156 220.863281 214.867188 220.816406 214.9375 C 220.773438 215.007812 220.71875 215.0625 220.703125 215.058594 C 220.683594 215.054688 220.558594 215.160156 220.429688 215.296875 C 220.300781 215.4375 220.160156 215.566406 220.125 215.589844 C 220.09375 215.613281 220.054688 215.671875 220.046875 215.71875 C 220.039062 215.761719 220.015625 215.792969 219.992188 215.789062 C 219.972656 215.785156 219.863281 215.882812 219.753906 216.003906 C 219.640625 216.128906 219.515625 216.242188 219.46875 216.261719 C 219.425781 216.285156 219.332031 216.359375 219.269531 216.421875 C 219.199219 216.484375 219.082031 216.558594 219 216.578125 C 218.917969 216.601562 218.621094 216.765625 218.339844 216.949219 C 217.714844 217.355469 217.574219 217.429688 217.1875 217.539062 C 217.019531 217.585938 216.851562 217.636719 216.8125 217.652344 C 216.554688 217.730469 216.039062 217.855469 215.949219 217.863281 C 215.800781 217.871094 215.554688 217.929688 215.515625 217.96875 C 215.5 217.984375 215.351562 218.039062 215.183594 218.085938 C 215.015625 218.136719 214.867188 218.195312 214.851562 218.222656 C 214.832031 218.25 214.796875 218.265625 214.761719 218.261719 C 214.714844 218.25 214.503906 218.308594 214.21875 218.40625 C 214.167969 218.425781 214.011719 218.46875 213.875 218.503906 C 213.734375 218.542969 213.476562 218.617188 213.296875 218.679688 C 213.121094 218.738281 212.886719 218.808594 212.785156 218.835938 C 212.679688 218.867188 212.460938 218.972656 212.296875 219.074219 C 212.136719 219.171875 211.988281 219.25 211.964844 219.246094 C 211.914062 219.234375 211.164062 219.777344 210.96875 219.964844 C 210.882812 220.046875 210.722656 220.179688 210.621094 220.257812 C 210.195312 220.589844 210.070312 220.695312 210.0625 220.734375 C 210.054688 220.769531 209.746094 220.980469 208.992188 221.457031 C 208.828125 221.558594 208.429688 221.835938 208.105469 222.066406 C 207.785156 222.300781 207.382812 222.59375 207.210938 222.714844 C 207.039062 222.839844 206.835938 222.992188 206.761719 223.058594 C 206.589844 223.214844 206.242188 223.453125 205.9375 223.632812 C 205.8125 223.703125 205.707031 223.777344 205.703125 223.789062 C 205.691406 223.859375 204.691406 224.480469 204.5 224.539062 C 204.382812 224.578125 204.230469 224.625 204.171875 224.640625 C 204.105469 224.664062 204.027344 224.71875 203.996094 224.765625 C 203.941406 224.835938 203.707031 224.949219 203.328125 225.078125 C 203.28125 225.097656 203.199219 225.132812 203.152344 225.164062 C 203.101562 225.195312 203 225.207031 202.921875 225.191406 C 202.851562 225.179688 202.738281 225.1875 202.675781 225.214844 C 202.589844 225.25 202.355469 225.230469 202.136719 225.1875 C 201.9375 225.148438 201.75 225.089844 201.714844 225.035156 C 201.683594 224.984375 201.636719 224.945312 201.601562 224.941406 C 201.570312 224.933594 201.5 224.894531 201.445312 224.847656 C 201.390625 224.804688 201.214844 224.730469 201.058594 224.683594 C 200.90625 224.636719 200.78125 224.582031 200.785156 224.5625 C 200.789062 224.542969 200.710938 224.410156 200.613281 224.273438 C 200.464844 224.074219 200.402344 224.015625 200.289062 223.996094 C 200.285156 223.996094 200.285156 223.996094 200.285156 223.996094 C 200.203125 223.976562 200.09375 223.984375 200.039062 224.007812 C 199.988281 224.03125 199.902344 224.050781 199.84375 224.050781 C 199.769531 224.042969 199.691406 224.101562 199.550781 224.289062 C 199.398438 224.484375 199.320312 224.648438 199.160156 225.101562 C 198.988281 225.585938 198.910156 225.890625 198.660156 227.144531 C 198.496094 227.957031 198.269531 228.945312 198.160156 229.347656 C 198.046875 229.75 197.898438 230.304688 197.832031 230.585938 C 197.765625 230.867188 197.683594 231.132812 197.65625 231.183594 C 197.625 231.230469 197.558594 231.367188 197.515625 231.488281 C 197.003906 232.785156 196.824219 233.832031 196.960938 234.703125 C 196.988281 234.875 197.015625 235.078125 197.023438 235.15625 C 197.03125 235.324219 197.113281 235.488281 197.347656 235.789062 C 197.5 235.984375 197.523438 236.003906 197.753906 236.046875 C 197.765625 236.050781 197.78125 236.050781 197.796875 236.054688 C 198.203125 236.132812 198.5 236.046875 198.679688 235.800781 C 198.816406 235.613281 198.984375 235.292969 199.085938 235.023438 C 199.117188 234.933594 199.214844 234.765625 199.296875 234.652344 C 199.382812 234.539062 199.5 234.355469 199.558594 234.25 C 199.613281 234.144531 199.722656 234.011719 199.789062 233.957031 C 199.859375 233.898438 199.925781 233.816406 199.933594 233.769531 C 199.941406 233.730469 199.964844 233.695312 199.992188 233.699219 C 200.03125 233.707031 200.242188 233.511719 200.429688 233.289062 C 200.484375 233.222656 200.539062 233.09375 200.558594 232.984375 C 200.578125 232.878906 200.648438 232.679688 200.71875 232.535156 C 200.835938 232.308594 200.859375 232.28125 200.972656 232.28125 C 201.078125 232.285156 201.113281 232.253906 201.1875 232.105469 C 201.242188 232.003906 201.347656 231.890625 201.457031 231.828125 C 201.550781 231.765625 201.632812 231.699219 201.636719 231.679688 C 201.644531 231.625 202.007812 231.261719 202.125 231.1875 C 202.175781 231.152344 202.222656 231.09375 202.234375 231.050781 C 202.242188 231.011719 202.28125 230.957031 202.320312 230.933594 C 202.359375 230.910156 202.398438 230.871094 202.402344 230.839844 C 202.414062 230.789062 202.644531 230.714844 202.796875 230.714844 C 202.84375 230.714844 202.894531 230.675781 202.914062 230.625 C 202.929688 230.578125 202.996094 230.515625 203.058594 230.496094 C 203.1875 230.441406 203.25 230.246094 203.199219 230.039062 C 203.175781 229.9375 203.1875 229.910156 203.300781 229.828125 C 203.371094 229.777344 203.46875 229.6875 203.523438 229.632812 C 203.578125 229.578125 203.691406 229.480469 203.777344 229.417969 C 203.863281 229.355469 203.976562 229.261719 204.03125 229.210938 C 204.082031 229.15625 204.164062 229.117188 204.207031 229.125 C 204.253906 229.132812 204.292969 229.121094 204.296875 229.097656 C 204.304688 229.066406 204.351562 229.019531 204.410156 228.988281 C 204.46875 228.953125 204.558594 228.871094 204.613281 228.804688 C 204.671875 228.734375 204.753906 228.683594 204.804688 228.683594 C 204.859375 228.6875 204.9375 228.640625 204.984375 228.582031 C 205.027344 228.519531 205.105469 228.46875 205.148438 228.460938 C 205.242188 228.453125 205.691406 228.164062 205.703125 228.109375 C 205.710938 228.070312 206.003906 227.820312 206.273438 227.625 C 206.382812 227.546875 206.476562 227.460938 206.480469 227.433594 C 206.496094 227.359375 207.109375 226.960938 207.617188 226.699219 C 207.867188 226.566406 208.125 226.425781 208.1875 226.382812 C 208.253906 226.34375 208.320312 226.3125 208.332031 226.3125 C 208.347656 226.316406 208.566406 226.214844 208.824219 226.089844 C 209.082031 225.957031 209.339844 225.839844 209.398438 225.820312 C 209.457031 225.800781 209.542969 225.761719 209.585938 225.730469 C 209.625 225.699219 209.734375 225.648438 209.820312 225.625 C 209.910156 225.597656 210.058594 225.539062 210.152344 225.492188 C 210.242188 225.449219 210.394531 225.390625 210.492188 225.367188 C 210.582031 225.34375 210.664062 225.3125 210.667969 225.289062 C 210.667969 225.273438 210.75 225.242188 210.84375 225.214844 C 210.9375 225.191406 211.101562 225.128906 211.207031 225.082031 C 211.519531 224.933594 211.886719 224.78125 211.921875 224.789062 C 211.941406 224.792969 212.0625 224.738281 212.191406 224.667969 C 212.316406 224.59375 212.449219 224.542969 212.476562 224.546875 C 212.511719 224.554688 212.585938 224.507812 212.648438 224.449219 C 212.710938 224.390625 212.785156 224.347656 212.820312 224.351562 C 212.847656 224.359375 212.992188 224.300781 213.136719 224.21875 C 213.28125 224.136719 213.417969 224.078125 213.445312 224.082031 C 213.464844 224.085938 213.535156 224.050781 213.601562 224.003906 C 213.667969 223.957031 213.742188 223.921875 213.769531 223.925781 C 213.796875 223.933594 213.921875 223.878906 214.042969 223.804688 C 214.164062 223.734375 214.28125 223.679688 214.300781 223.683594 C 214.324219 223.6875 214.417969 223.636719 214.515625 223.566406 C 214.605469 223.496094 214.761719 223.421875 214.859375 223.394531 C 214.953125 223.363281 215.035156 223.324219 215.039062 223.300781 C 215.042969 223.28125 215.132812 223.242188 215.242188 223.210938 C 215.492188 223.140625 215.636719 223.09375 215.707031 223.042969 C 215.738281 223.023438 215.789062 223.011719 215.816406 223.019531 C 215.847656 223.023438 215.949219 223 216.046875 222.960938 C 216.144531 222.921875 216.308594 222.878906 216.414062 222.859375 C 216.523438 222.835938 216.742188 222.769531 216.902344 222.703125 C 217.054688 222.640625 217.207031 222.589844 217.238281 222.59375 C 217.261719 222.601562 217.3125 222.582031 217.34375 222.558594 C 217.375 222.53125 217.515625 222.496094 217.65625 222.480469 C 217.796875 222.460938 217.945312 222.425781 217.988281 222.40625 C 218.027344 222.382812 218.089844 222.367188 218.113281 222.371094 C 218.144531 222.378906 218.199219 222.371094 218.246094 222.355469 C 218.289062 222.339844 218.457031 222.296875 218.621094 222.253906 C 219.136719 222.117188 219.203125 222.089844 219.597656 221.84375 C 220.148438 221.503906 220.261719 221.441406 220.394531 221.398438 C 220.464844 221.378906 220.578125 221.3125 220.648438 221.253906 C 220.71875 221.195312 220.796875 221.152344 220.820312 221.15625 C 220.839844 221.160156 221.023438 221.058594 221.222656 220.929688 C 221.425781 220.800781 221.605469 220.699219 221.625 220.703125 C 221.648438 220.707031 221.703125 220.6875 221.75 220.65625 C 221.828125 220.609375 221.992188 220.554688 222.730469 220.332031 C 222.898438 220.277344 223.054688 220.210938 223.082031 220.1875 C 223.105469 220.160156 223.203125 220.117188 223.292969 220.097656 C 223.386719 220.070312 223.472656 220.039062 223.480469 220.023438 C 223.492188 220.007812 223.617188 219.949219 223.757812 219.894531 C 223.898438 219.839844 224.09375 219.757812 224.183594 219.707031 C 224.277344 219.660156 224.40625 219.59375 224.472656 219.558594 C 224.542969 219.523438 224.726562 219.425781 224.882812 219.34375 C 225.253906 219.148438 225.476562 219.015625 225.917969 218.722656 C 226.378906 218.417969 226.550781 218.316406 226.71875 218.257812 C 226.789062 218.226562 226.914062 218.164062 226.992188 218.113281 C 227.300781 217.910156 227.957031 217.546875 228.113281 217.496094 C 228.203125 217.464844 228.414062 217.355469 228.578125 217.25 C 228.964844 217.003906 229.015625 216.96875 229.082031 216.914062 C 229.214844 216.808594 229.527344 216.628906 229.605469 216.617188 C 229.652344 216.609375 229.703125 216.570312 229.726562 216.523438 C 229.75 216.476562 229.828125 216.421875 229.902344 216.402344 C 229.976562 216.382812 230.066406 216.320312 230.101562 216.269531 C 230.136719 216.21875 230.183594 216.179688 230.207031 216.183594 C 230.230469 216.1875 230.351562 216.121094 230.480469 216.027344 C 231.25 215.5 232.03125 215.027344 232.5 214.800781 C 232.585938 214.753906 232.75 214.664062 232.863281 214.597656 C 232.976562 214.53125 233.085938 214.476562 233.101562 214.480469 C 233.117188 214.484375 233.203125 214.449219 233.292969 214.394531 C 233.574219 214.242188 234.03125 214.050781 234.089844 214.0625 C 234.121094 214.070312 234.167969 214.054688 234.183594 214.03125 C 234.207031 214.011719 234.308594 213.957031 234.414062 213.90625 C 234.515625 213.859375 234.574219 213.839844 234.636719 213.851562 C 234.683594 213.859375 234.734375 213.890625 234.8125 213.941406 C 235.039062 214.089844 235.53125 214.335938 235.652344 214.363281 L 235.65625 214.363281 C 235.730469 214.375 235.976562 214.492188 236.203125 214.617188 C 236.425781 214.742188 236.679688 214.871094 236.765625 214.898438 C 236.847656 214.929688 237.085938 215.042969 237.289062 215.152344 C 237.496094 215.261719 237.742188 215.390625 237.84375 215.4375 C 237.941406 215.484375 238.148438 215.589844 238.296875 215.675781 C 238.449219 215.753906 238.785156 215.886719 239.042969 215.960938 C 239.304688 216.035156 239.683594 216.160156 239.882812 216.234375 C 240.082031 216.3125 240.621094 216.492188 241.085938 216.636719 C 241.546875 216.785156 242.066406 216.964844 242.246094 217.03125 C 242.421875 217.105469 242.78125 217.230469 243.035156 217.3125 C 243.703125 217.527344 243.867188 217.589844 243.910156 217.632812 C 243.929688 217.65625 244.039062 217.710938 244.144531 217.757812 C 244.257812 217.804688 244.394531 217.875 244.460938 217.90625 L 244.566406 217.976562 L 244 218.359375 C 243.363281 218.789062 243.140625 218.957031 242.796875 219.265625 C 242.667969 219.382812 242.507812 219.503906 242.453125 219.535156 C 242.394531 219.570312 242.324219 219.628906 242.296875 219.675781 C 242.277344 219.722656 242.210938 219.785156 242.164062 219.8125 C 242.117188 219.839844 242.011719 219.949219 241.929688 220.058594 C 241.851562 220.160156 241.742188 220.273438 241.6875 220.304688 C 241.632812 220.339844 241.566406 220.417969 241.542969 220.476562 C 241.519531 220.539062 241.425781 220.664062 241.34375 220.75 C 241.253906 220.84375 241.164062 220.960938 241.136719 221.011719 C 241.105469 221.0625 241.027344 221.164062 240.957031 221.238281 C 240.894531 221.3125 240.789062 221.433594 240.742188 221.515625 C 240.6875 221.59375 240.578125 221.714844 240.492188 221.785156 C 240.414062 221.863281 240.289062 221.984375 240.222656 222.070312 C 239.984375 222.355469 239.808594 222.554688 239.632812 222.71875 C 239.535156 222.8125 239.449219 222.90625 239.445312 222.925781 C 239.441406 222.949219 239.371094 223.027344 239.28125 223.109375 C 239.199219 223.183594 239.121094 223.261719 239.117188 223.285156 C 239.113281 223.304688 239.039062 223.386719 238.953125 223.46875 C 238.863281 223.550781 238.671875 223.75 238.523438 223.914062 C 238.382812 224.078125 238.203125 224.253906 238.128906 224.308594 C 238.058594 224.363281 237.976562 224.445312 237.949219 224.488281 C 237.925781 224.535156 237.8125 224.65625 237.703125 224.757812 C 237.589844 224.859375 237.496094 224.96875 237.488281 225.007812 C 237.480469 225.050781 237.457031 225.074219 237.433594 225.070312 C 237.410156 225.066406 237.328125 225.136719 237.25 225.226562 C 237.171875 225.320312 237.011719 225.449219 236.898438 225.519531 C 236.785156 225.589844 236.605469 225.730469 236.503906 225.835938 C 236.402344 225.941406 236.296875 226.023438 236.265625 226.019531 C 236.1875 226.003906 236.0625 226.109375 236.042969 226.210938 C 236.03125 226.265625 235.945312 226.363281 235.847656 226.433594 C 235.75 226.503906 235.664062 226.597656 235.65625 226.644531 C 235.648438 226.683594 235.625 226.71875 235.605469 226.714844 C 235.585938 226.710938 235.503906 226.773438 235.414062 226.859375 C 235.332031 226.9375 235.210938 227.042969 235.148438 227.09375 C 235.082031 227.140625 235.027344 227.214844 235.019531 227.25 C 235 227.351562 234.421875 227.761719 234.332031 227.746094 C 234.328125 227.746094 234.324219 227.742188 234.324219 227.738281 C 234.300781 227.683594 234.183594 227.628906 234.074219 227.605469 C 234.011719 227.59375 233.957031 227.59375 233.914062 227.601562 C 233.863281 227.625 233.722656 227.761719 233.613281 227.914062 C 233.410156 228.191406 233.070312 228.554688 232.960938 228.617188 C 232.847656 228.679688 232.410156 229.273438 232.351562 229.441406 C 232.3125 229.566406 232.253906 229.644531 232.140625 229.71875 C 232.050781 229.773438 231.960938 229.867188 231.933594 229.925781 C 231.886719 230.027344 231.503906 230.226562 231.390625 230.207031 C 231.324219 230.191406 231.171875 230.355469 231.152344 230.457031 C 231.121094 230.621094 231.226562 230.9375 231.378906 231.136719 C 231.65625 231.492188 231.734375 231.582031 231.835938 231.648438 C 231.890625 231.679688 231.984375 231.746094 232.054688 231.789062 C 232.121094 231.835938 232.195312 231.878906 232.222656 231.882812 C 232.25 231.886719 232.324219 231.949219 232.386719 232.023438 C 232.453125 232.09375 232.519531 232.15625 232.53125 232.160156 C 232.546875 232.160156 232.648438 232.230469 232.757812 232.308594 C 232.863281 232.386719 233.015625 232.476562 233.097656 232.503906 C 233.230469 232.558594 233.660156 232.808594 233.804688 232.921875 C 233.839844 232.945312 233.941406 232.996094 234.035156 233.03125 C 234.128906 233.066406 234.277344 233.148438 234.363281 233.210938 C 234.554688 233.351562 234.929688 233.570312 235.003906 233.585938 C 235.035156 233.59375 235.167969 233.679688 235.304688 233.773438 C 235.441406 233.875 235.578125 233.957031 235.613281 233.960938 C 235.648438 233.96875 235.78125 234.0625 235.90625 234.171875 C 236.035156 234.277344 236.1875 234.390625 236.246094 234.417969 C 236.304688 234.441406 236.398438 234.511719 236.453125 234.570312 C 236.511719 234.628906 236.636719 234.71875 236.734375 234.765625 C 236.832031 234.820312 236.988281 234.933594 237.085938 235.015625 C 237.179688 235.105469 237.3125 235.199219 237.375 235.226562 C 237.445312 235.257812 237.578125 235.34375 237.675781 235.425781 C 237.78125 235.503906 237.945312 235.589844 238.050781 235.613281 C 238.160156 235.640625 238.253906 235.675781 238.265625 235.695312 C 238.308594 235.78125 238.742188 235.910156 239.609375 236.101562 C 239.832031 236.152344 240.007812 236.1875 240.144531 236.214844 C 240.421875 236.269531 240.535156 236.28125 240.542969 236.253906 C 240.546875 236.230469 240.625 236.222656 240.742188 236.246094 C 241.164062 236.328125 241.953125 236.226562 242.128906 236.070312 C 242.167969 236.035156 242.222656 235.988281 242.257812 235.964844 C 242.464844 235.824219 242.511719 235.730469 242.546875 235.410156 C 242.574219 235.109375 242.539062 234.8125 242.472656 234.796875 C 242.457031 234.792969 242.425781 234.746094 242.40625 234.6875 C 242.355469 234.511719 242.144531 234.371094 241.675781 234.191406 C 241.507812 234.125 241.21875 234.011719 241.027344 233.941406 C 240.839844 233.863281 240.625 233.785156 240.554688 233.757812 C 240.457031 233.722656 240.425781 233.6875 240.4375 233.628906 C 240.445312 233.582031 240.40625 233.511719 240.347656 233.472656 C 240.292969 233.429688 240.246094 233.355469 240.246094 233.308594 C 240.246094 233.171875 240.195312 233.113281 240.015625 233.046875 C 239.921875 233.011719 239.753906 232.914062 239.644531 232.832031 C 239.480469 232.710938 239.429688 232.644531 239.394531 232.484375 C 239.367188 232.378906 239.316406 232.285156 239.285156 232.277344 C 239.25 232.273438 239.226562 232.242188 239.230469 232.210938 C 239.238281 232.179688 239.179688 232.082031 239.101562 231.988281 C 239.023438 231.898438 238.941406 231.761719 238.921875 231.6875 C 238.894531 231.613281 238.832031 231.527344 238.78125 231.507812 C 238.71875 231.476562 238.6875 231.433594 238.695312 231.382812 C 238.707031 231.335938 238.6875 231.285156 238.65625 231.265625 C 238.625 231.242188 238.601562 231.199219 238.609375 231.164062 C 238.613281 231.132812 238.546875 230.996094 238.449219 230.859375 C 238.269531 230.605469 238.25 230.476562 238.386719 230.503906 C 238.429688 230.511719 238.496094 230.484375 238.53125 230.4375 C 238.601562 230.351562 238.609375 230.15625 238.542969 230.140625 C 238.519531 230.136719 238.515625 230.070312 238.53125 229.992188 C 238.542969 229.917969 238.527344 229.796875 238.492188 229.730469 C 238.417969 229.59375 238.460938 229.4375 238.636719 229.183594 C 238.890625 228.820312 238.941406 228.738281 238.953125 228.683594 C 238.960938 228.652344 238.996094 228.621094 239.03125 228.613281 C 239.070312 228.605469 239.109375 228.550781 239.121094 228.476562 C 239.136719 228.410156 239.160156 228.351562 239.183594 228.347656 C 239.257812 228.332031 239.503906 228.070312 239.519531 227.988281 C 239.527344 227.941406 239.558594 227.90625 239.578125 227.910156 C 239.601562 227.914062 239.628906 227.871094 239.640625 227.816406 C 239.648438 227.769531 239.714844 227.679688 239.785156 227.628906 C 239.847656 227.582031 240.050781 227.40625 240.230469 227.242188 C 240.410156 227.082031 240.621094 226.898438 240.699219 226.84375 C 240.996094 226.625 241.203125 226.449219 241.207031 226.417969 C 241.21875 226.398438 241.285156 226.355469 241.371094 226.324219 C 241.453125 226.289062 241.542969 226.230469 241.574219 226.183594 C 241.605469 226.140625 241.6875 226.085938 241.761719 226.058594 C 241.832031 226.035156 241.898438 225.988281 241.902344 225.960938 C 241.914062 225.933594 242.003906 225.871094 242.101562 225.824219 C 242.207031 225.78125 242.296875 225.710938 242.304688 225.675781 C 242.3125 225.644531 242.34375 225.617188 242.371094 225.625 C 242.40625 225.632812 242.511719 225.578125 242.609375 225.503906 C 242.707031 225.4375 242.886719 225.328125 243.011719 225.269531 C 243.132812 225.210938 243.304688 225.113281 243.390625 225.054688 C 243.480469 225 243.734375 224.839844 243.964844 224.710938 C 244.691406 224.285156 247.25 222.53125 247.785156 222.089844 C 248.144531 221.789062 248.292969 221.671875 248.4375 221.582031 C 249.007812 221.230469 250.476562 220.160156 250.488281 220.085938 C 250.496094 220.039062 250.914062 219.625 251.074219 219.503906 C 251.292969 219.339844 251.664062 218.894531 251.746094 218.699219 C 251.792969 218.597656 251.875 218.277344 251.933594 217.984375 C 252.023438 217.496094 252.03125 217.429688 251.96875 217.230469 C 251.933594 217.113281 251.867188 216.960938 251.816406 216.894531 C 251.765625 216.828125 251.730469 216.761719 251.738281 216.738281 C 251.742188 216.71875 251.703125 216.6875 251.652344 216.664062 C 251.601562 216.636719 251.503906 216.53125 251.433594 216.421875 C 251.351562 216.300781 251.140625 216.105469 250.878906 215.90625 C 250.648438 215.734375 250.433594 215.566406 250.40625 215.539062 C 250.375 215.511719 250.195312 215.378906 250.011719 215.238281 C 249.820312 215.097656 249.570312 214.886719 249.445312 214.765625 C 249.320312 214.648438 249.152344 214.488281 249.066406 214.410156 C 248.980469 214.335938 248.800781 214.167969 248.664062 214.039062 C 248.527344 213.914062 248.382812 213.789062 248.347656 213.769531 C 248.308594 213.75 248.28125 213.714844 248.285156 213.695312 C 248.289062 213.671875 248.269531 213.652344 248.246094 213.648438 C 248.21875 213.640625 248.148438 213.582031 248.085938 213.507812 C 248.023438 213.433594 247.953125 213.375 247.925781 213.367188 C 247.90625 213.363281 247.859375 213.316406 247.828125 213.269531 C 247.796875 213.214844 247.714844 213.136719 247.648438 213.09375 C 247.578125 213.050781 247.453125 212.941406 247.363281 212.84375 C 247.269531 212.753906 247.15625 212.652344 247.101562 212.625 C 247.046875 212.597656 246.972656 212.53125 246.933594 212.480469 C 246.894531 212.429688 246.785156 212.34375 246.691406 212.285156 C 246.601562 212.234375 246.484375 212.136719 246.425781 212.070312 C 246.375 212.003906 246.269531 211.914062 246.199219 211.871094 C 246.125 211.828125 246.042969 211.769531 246.011719 211.742188 C 245.980469 211.71875 245.894531 211.648438 245.824219 211.597656 C 245.75 211.542969 245.523438 211.382812 245.328125 211.238281 C 245.128906 211.089844 244.917969 210.933594 244.851562 210.886719 C 244.792969 210.835938 244.65625 210.730469 244.550781 210.648438 C 244.449219 210.574219 244.320312 210.453125 244.265625 210.382812 C 244.214844 210.3125 244.140625 210.222656 244.105469 210.191406 C 244.0625 210.15625 243.953125 210.050781 243.859375 209.953125 C 243.769531 209.863281 243.667969 209.777344 243.632812 209.769531 C 243.601562 209.765625 243.570312 209.742188 243.5625 209.722656 C 243.550781 209.699219 243.417969 209.605469 243.261719 209.507812 C 243.109375 209.414062 242.953125 209.316406 242.921875 209.289062 C 242.761719 209.140625 242.53125 209.003906 242.300781 208.917969 C 242.160156 208.859375 242.027344 208.796875 242.007812 208.765625 C 241.992188 208.742188 241.917969 208.707031 241.847656 208.691406 C 241.847656 208.691406 241.84375 208.691406 241.84375 208.691406 C 241.765625 208.675781 241.6875 208.625 241.652344 208.566406 C 241.617188 208.507812 241.539062 208.460938 241.453125 208.441406 C 241.449219 208.441406 241.449219 208.441406 241.449219 208.441406 C 241.375 208.429688 241.316406 208.394531 241.320312 208.371094 C 241.332031 208.3125 241.589844 208.167969 241.855469 208.078125 C 241.96875 208.039062 242.121094 207.964844 242.191406 207.917969 C 242.257812 207.867188 242.335938 207.832031 242.359375 207.835938 C 242.382812 207.839844 242.46875 207.796875 242.546875 207.742188 C 242.628906 207.6875 242.714844 207.644531 242.738281 207.648438 C 242.765625 207.652344 242.886719 207.601562 243.011719 207.535156 C 243.378906 207.34375 243.667969 207.214844 243.796875 207.1875 C 243.863281 207.167969 243.960938 207.128906 244.015625 207.089844 C 244.070312 207.050781 244.199219 207 244.300781 206.96875 C 244.398438 206.941406 244.539062 206.886719 244.605469 206.851562 C 244.671875 206.8125 244.773438 206.773438 244.835938 206.769531 C 244.894531 206.761719 244.972656 206.738281 245.007812 206.714844 C 245.042969 206.691406 245.167969 206.65625 245.285156 206.632812 C 245.40625 206.613281 245.605469 206.558594 245.734375 206.507812 C 245.863281 206.460938 246.023438 206.402344 246.085938 206.378906 C 246.339844 206.292969 246.644531 206.125 246.714844 206.039062 C 246.757812 205.992188 246.8125 205.953125 246.835938 205.960938 C 246.859375 205.964844 246.96875 205.90625 247.070312 205.828125 C 247.164062 205.753906 247.265625 205.695312 247.277344 205.695312 C 247.292969 205.699219 247.386719 205.660156 247.484375 205.609375 C 247.585938 205.554688 247.722656 205.503906 247.800781 205.484375 C 247.871094 205.46875 247.996094 205.425781 248.074219 205.390625 C 248.152344 205.351562 248.324219 205.296875 248.457031 205.269531 C 248.582031 205.242188 248.695312 205.203125 248.695312 205.1875 C 248.699219 205.171875 248.757812 205.152344 248.820312 205.144531 C 248.886719 205.144531 249.09375 205.101562 249.28125 205.050781 C 249.472656 205.007812 249.757812 204.953125 249.914062 204.933594 C 250.070312 204.917969 250.242188 204.882812 250.292969 204.863281 C 250.351562 204.84375 250.472656 204.820312 250.570312 204.808594 C 250.667969 204.796875 250.8125 204.761719 250.886719 204.734375 C 250.96875 204.707031 251.148438 204.644531 251.292969 204.59375 C 251.433594 204.546875 251.570312 204.488281 251.585938 204.457031 C 251.605469 204.425781 251.648438 204.40625 251.683594 204.414062 C 251.714844 204.417969 251.839844 204.367188 251.953125 204.292969 C 252.070312 204.21875 252.183594 204.160156 252.199219 204.164062 C 252.230469 204.171875 253.097656 203.703125 253.15625 203.644531 C 253.179688 203.625 253.230469 203.621094 253.296875 203.636719 C 253.503906 203.675781 253.875 203.867188 254.042969 204.050781 C 254.1875 204.207031 254.523438 204.691406 254.578125 204.828125 C 254.621094 204.929688 254.773438 205.035156 254.890625 205.058594 C 254.925781 205.066406 254.960938 205.0625 254.984375 205.050781 C 255.011719 205.035156 255.050781 205.03125 255.09375 205.039062 C 255.195312 205.058594 255.3125 205.136719 255.375 205.230469 C 255.414062 205.296875 255.476562 205.355469 255.503906 205.363281 C 255.535156 205.367188 255.671875 205.472656 255.804688 205.59375 C 255.9375 205.714844 256.054688 205.8125 256.0625 205.816406 C 256.070312 205.816406 256.222656 205.925781 256.402344 206.054688 C 256.578125 206.183594 256.738281 206.292969 256.757812 206.296875 C 256.773438 206.296875 256.871094 206.363281 256.96875 206.445312 C 257.171875 206.609375 257.945312 207.074219 258.1875 207.175781 C 258.351562 207.246094 258.640625 207.40625 258.773438 207.503906 C 258.816406 207.535156 258.984375 207.625 259.148438 207.703125 C 259.441406 207.839844 259.84375 208.0625 260.070312 208.214844 C 260.300781 208.367188 260.5 208.480469 260.636719 208.546875 C 260.710938 208.585938 260.953125 208.707031 261.167969 208.824219 C 261.644531 209.066406 261.902344 209.183594 262.101562 209.222656 C 262.210938 209.246094 262.300781 209.242188 262.398438 209.226562 C 262.546875 209.199219 262.933594 209 262.945312 208.941406 C 262.957031 208.890625 263.679688 208.230469 263.902344 208.074219 C 264.007812 208 264.097656 207.910156 264.105469 207.878906 C 264.109375 207.84375 264.179688 207.765625 264.257812 207.707031 C 264.421875 207.589844 264.851562 207.140625 264.863281 207.078125 C 264.867188 207.058594 264.917969 207.011719 264.976562 206.972656 C 265.035156 206.941406 265.128906 206.847656 265.191406 206.765625 C 265.257812 206.683594 265.378906 206.550781 265.460938 206.472656 C 265.546875 206.394531 265.617188 206.308594 265.621094 206.285156 C 265.628906 206.261719 265.671875 206.210938 265.726562 206.171875 C 265.777344 206.128906 265.910156 205.988281 266.019531 205.855469 C 266.125 205.71875 266.257812 205.558594 266.308594 205.496094 C 266.359375 205.433594 266.441406 205.324219 266.492188 205.25 C 266.546875 205.179688 266.652344 205.042969 266.730469 204.949219 C 266.804688 204.855469 266.871094 204.746094 266.878906 204.699219 C 266.890625 204.660156 267 204.488281 267.125 204.324219 C 267.253906 204.15625 267.363281 203.980469 267.375 203.941406 C 267.382812 203.894531 267.453125 203.773438 267.535156 203.664062 C 267.617188 203.558594 267.683594 203.445312 267.691406 203.410156 C 267.703125 203.339844 267.890625 203.003906 267.980469 202.890625 C 268.054688 202.796875 268.132812 202.644531 268.433594 202.023438 C 268.527344 201.835938 268.617188 201.671875 268.640625 201.648438 C 268.664062 201.632812 268.695312 201.566406 268.707031 201.503906 C 268.71875 201.441406 268.820312 201.296875 268.933594 201.179688 C 269.128906 200.980469 269.378906 200.707031 269.53125 200.523438 C 269.570312 200.480469 269.648438 200.417969 269.707031 200.386719 C 269.84375 200.3125 270.273438 199.902344 270.285156 199.828125 C 270.292969 199.796875 270.398438 199.644531 270.523438 199.488281 C 270.648438 199.332031 270.761719 199.160156 270.769531 199.105469 C 270.78125 199.054688 270.855469 198.914062 270.9375 198.792969 C 271.101562 198.566406 271.304688 198.023438 271.292969 197.867188 C 271.292969 197.804688 271.371094 197.660156 271.515625 197.476562 C 271.644531 197.308594 271.753906 197.136719 271.761719 197.097656 C 271.769531 197.050781 271.84375 196.925781 271.917969 196.820312 C 272.171875 196.464844 272.339844 195.976562 272.277344 195.777344 C 272.253906 195.699219 272.128906 195.628906 272.007812 195.605469 C 271.957031 195.597656 271.910156 195.59375 271.867188 195.601562 C 271.746094 195.621094 271.621094 195.785156 271.4375 196.183594 C 271.371094 196.332031 271.285156 196.46875 271.246094 196.492188 C 271.207031 196.507812 271.171875 196.546875 271.167969 196.566406 C 271.164062 196.585938 271.128906 196.628906 271.085938 196.65625 C 271.046875 196.6875 271.003906 196.746094 270.996094 196.796875 C 270.980469 196.847656 270.941406 196.929688 270.898438 196.980469 L 270.828125 197.070312 L 270.789062 196.960938 C 270.753906 196.851562 270.777344 196.796875 271.027344 196.339844 C 271.085938 196.230469 271.164062 196.007812 271.203125 195.84375 C 271.238281 195.679688 271.289062 195.523438 271.308594 195.5 C 271.363281 195.4375 271.570312 194.714844 271.566406 194.582031 C 271.566406 194.453125 271.414062 194.304688 271.246094 194.273438 C 271.246094 194.273438 271.246094 194.273438 271.242188 194.273438 C 271.242188 194.273438 271.238281 194.273438 271.234375 194.269531 C 271.144531 194.253906 271.148438 194.246094 271.226562 194.148438 C 271.339844 194 271.351562 193.867188 271.257812 193.734375 C 271.203125 193.652344 271.085938 193.589844 270.964844 193.566406 C 270.886719 193.550781 270.808594 193.550781 270.746094 193.570312 C 270.628906 193.605469 270.367188 193.976562 270.234375 194.296875 C 270.175781 194.441406 270.058594 194.640625 269.980469 194.738281 C 269.898438 194.839844 269.824219 194.96875 269.8125 195.03125 C 269.796875 195.085938 269.789062 195.113281 269.785156 195.113281 C 269.78125 195.113281 269.78125 195.085938 269.785156 195.035156 C 269.78125 194.976562 269.832031 194.832031 269.890625 194.707031 C 270.292969 193.894531 270.296875 193.660156 269.929688 193.589844 C 269.929688 193.585938 269.925781 193.585938 269.925781 193.585938 C 269.582031 193.523438 269.492188 193.597656 269.246094 194.152344 C 269.191406 194.269531 269.09375 194.472656 269.023438 194.605469 C 268.953125 194.730469 268.875 194.957031 268.84375 195.113281 C 268.808594 195.28125 268.742188 195.464844 268.660156 195.601562 C 268.585938 195.71875 268.464844 195.921875 268.386719 196.054688 C 268.304688 196.1875 268.175781 196.351562 268.09375 196.417969 C 268.011719 196.484375 267.921875 196.5625 267.886719 196.597656 C 267.863281 196.625 267.847656 196.640625 267.824219 196.632812 C 267.800781 196.628906 267.765625 196.605469 267.703125 196.554688 C 267.535156 196.414062 267.308594 196.121094 267.320312 196.054688 C 267.335938 195.980469 267.113281 195.757812 266.910156 195.640625 C 266.789062 195.570312 266.589844 195.511719 266.308594 195.457031 C 266.300781 195.453125 266.292969 195.453125 266.285156 195.449219 C 265.785156 195.355469 265.703125 195.378906 265.675781 195.628906 C 265.660156 195.773438 265.671875 195.789062 265.855469 195.886719 C 266.085938 196.007812 266.214844 196.140625 266.464844 196.511719 C 266.757812 196.945312 266.808594 197.050781 266.839844 197.320312 C 266.855469 197.464844 266.902344 197.65625 266.941406 197.746094 C 266.976562 197.832031 267 197.949219 266.992188 197.992188 C 266.957031 198.167969 267.019531 198.730469 267.089844 198.875 C 267.148438 198.996094 267.148438 199.070312 267.097656 199.308594 C 267.066406 199.46875 267.011719 199.613281 266.980469 199.636719 C 266.957031 199.652344 266.925781 199.695312 266.921875 199.726562 C 266.914062 199.761719 266.875 199.839844 266.828125 199.90625 C 266.675781 200.128906 266.539062 200.359375 266.527344 200.421875 C 266.519531 200.457031 266.457031 200.546875 266.390625 200.625 C 266.320312 200.699219 266.238281 200.8125 266.207031 200.878906 C 266.175781 200.945312 266.117188 201.023438 266.082031 201.050781 C 266.003906 201.109375 265.679688 201.507812 265.417969 201.855469 C 265.324219 201.976562 265.195312 202.128906 265.125 202.191406 C 265.0625 202.25 264.964844 202.359375 264.910156 202.433594 C 264.859375 202.503906 264.765625 202.605469 264.699219 202.652344 C 264.636719 202.703125 264.558594 202.78125 264.523438 202.835938 C 264.484375 202.890625 264.0625 203.210938 263.589844 203.554688 C 263.117188 203.898438 262.726562 204.195312 262.722656 204.214844 C 262.71875 204.230469 262.632812 204.300781 262.53125 204.367188 C 262.429688 204.433594 262.324219 204.511719 262.292969 204.53125 C 261.992188 204.761719 261.710938 204.855469 261.449219 204.808594 C 261.449219 204.804688 261.445312 204.804688 261.441406 204.804688 C 261.269531 204.773438 261.207031 204.738281 261.074219 204.582031 C 260.984375 204.484375 260.847656 204.351562 260.765625 204.289062 C 260.683594 204.226562 260.566406 204.089844 260.503906 203.988281 C 260.347656 203.734375 260.144531 203.507812 259.902344 203.308594 C 259.789062 203.21875 259.660156 203.117188 259.621094 203.082031 C 259.378906 202.878906 259 202.605469 258.886719 202.5625 C 258.796875 202.523438 258.757812 202.480469 258.761719 202.417969 C 258.761719 202.367188 258.738281 202.308594 258.710938 202.285156 C 258.679688 202.265625 258.601562 202.199219 258.53125 202.148438 C 258.46875 202.097656 258.382812 202.050781 258.335938 202.042969 C 258.292969 202.035156 258.238281 202.007812 258.207031 201.980469 C 258.128906 201.902344 258.363281 201.699219 258.5 201.726562 C 258.734375 201.769531 258.957031 201.714844 259.050781 201.585938 C 259.105469 201.511719 259.175781 201.464844 259.214844 201.472656 C 259.257812 201.480469 259.320312 201.46875 259.355469 201.445312 C 259.390625 201.417969 259.457031 201.394531 259.5 201.382812 C 259.539062 201.378906 259.632812 201.285156 259.710938 201.175781 C 259.8125 201.035156 259.84375 200.996094 259.90625 201.007812 C 259.921875 201.011719 259.945312 201.019531 259.96875 201.03125 C 260.15625 201.105469 260.296875 201.152344 260.410156 201.171875 C 260.640625 201.21875 260.742188 201.15625 260.804688 200.976562 C 260.835938 200.890625 260.949219 200.621094 261.050781 200.382812 C 261.167969 200.121094 261.261719 199.820312 261.304688 199.605469 C 261.378906 199.214844 261.375 199.21875 261.746094 199.179688 C 261.929688 199.160156 262.015625 199.066406 262.058594 198.835938 C 262.078125 198.761719 262.121094 198.664062 262.167969 198.609375 C 262.210938 198.558594 262.253906 198.476562 262.269531 198.421875 C 262.277344 198.371094 262.308594 198.332031 262.328125 198.335938 C 262.351562 198.34375 262.375 198.320312 262.378906 198.292969 C 262.402344 198.1875 262.523438 197.972656 262.554688 197.976562 C 262.558594 197.976562 262.558594 197.980469 262.5625 197.984375 C 262.574219 198.011719 262.773438 198.074219 263.007812 198.132812 C 263.246094 198.1875 263.457031 198.261719 263.476562 198.292969 C 263.5 198.324219 263.558594 198.347656 263.628906 198.363281 C 263.816406 198.398438 264.101562 198.371094 264.117188 198.285156 C 264.125 198.242188 264.152344 198.210938 264.175781 198.214844 C 264.199219 198.21875 264.222656 198.179688 264.234375 198.128906 C 264.242188 198.078125 264.289062 198.011719 264.335938 197.976562 C 264.4375 197.898438 264.570312 197.449219 264.519531 197.355469 C 264.496094 197.316406 264.507812 197.242188 264.554688 197.136719 C 264.59375 197.046875 264.640625 196.910156 264.65625 196.832031 C 264.683594 196.6875 264.632812 195.953125 264.585938 195.820312 C 264.574219 195.78125 264.542969 195.679688 264.519531 195.597656 C 264.492188 195.519531 264.449219 195.445312 264.417969 195.441406 C 264.382812 195.433594 264.339844 195.355469 264.316406 195.269531 C 264.277344 195.113281 263.949219 194.765625 263.648438 194.550781 C 263.574219 194.496094 263.535156 194.425781 263.527344 194.296875 C 263.519531 194.195312 263.480469 194.050781 263.445312 193.972656 C 263.40625 193.894531 263.375 193.796875 263.367188 193.75 C 263.359375 193.703125 263.308594 193.667969 263.214844 193.648438 C 263.214844 193.648438 263.214844 193.648438 263.210938 193.648438 C 263.210938 193.648438 263.210938 193.648438 263.207031 193.648438 C 263 193.605469 262.835938 193.496094 262.808594 193.378906 C 262.78125 193.265625 262.644531 193.191406 262.359375 193.136719 C 262.355469 193.136719 262.351562 193.136719 262.347656 193.136719 C 262.347656 193.136719 262.34375 193.136719 262.34375 193.132812 C 262.230469 193.113281 262.15625 193.070312 262.117188 193.007812 C 262.085938 192.960938 261.992188 192.871094 261.910156 192.8125 C 261.8125 192.746094 261.761719 192.675781 261.769531 192.628906 C 261.796875 192.492188 261.648438 192.339844 261.21875 192.054688 C 261.160156 192.019531 261.027344 191.972656 260.929688 191.953125 C 260.925781 191.953125 260.925781 191.953125 260.925781 191.953125 C 260.925781 191.953125 260.921875 191.953125 260.921875 191.953125 C 260.820312 191.933594 260.550781 191.851562 260.332031 191.769531 C 260.136719 191.699219 259.949219 191.644531 259.765625 191.609375 C 259.6875 191.59375 259.609375 191.582031 259.53125 191.574219 C 258.398438 191.429688 258.359375 191.425781 258.347656 191.480469 C 258.339844 191.519531 258.25 191.53125 258.09375 191.519531 C 257.957031 191.503906 257.773438 191.507812 257.6875 191.527344 C 257.601562 191.546875 257.449219 191.566406 257.351562 191.578125 C 257.078125 191.605469 256.800781 191.691406 256.609375 191.8125 C 256.515625 191.871094 256.355469 191.941406 256.253906 191.96875 C 256.15625 192 256.039062 192.070312 255.992188 192.128906 C 255.886719 192.261719 255.621094 192.460938 255.492188 192.496094 C 255.445312 192.507812 255.359375 192.566406 255.3125 192.617188 C 255.265625 192.667969 255.15625 192.789062 255.066406 192.875 C 254.9375 193.007812 254.894531 193.089844 254.835938 193.332031 L 254.761719 193.632812 L 254.574219 193.683594 C 254.480469 193.707031 254.429688 193.71875 254.402344 193.714844 C 254.378906 193.710938 254.367188 193.695312 254.359375 193.667969 C 254.347656 193.632812 254.289062 193.558594 254.226562 193.511719 C 254.164062 193.460938 254.101562 193.359375 254.082031 193.277344 C 254.039062 193.089844 253.628906 192.457031 253.46875 192.332031 C 253.402344 192.277344 253.347656 192.21875 253.351562 192.199219 C 253.355469 192.179688 253.292969 192.113281 253.21875 192.0625 C 253.136719 192.003906 253.066406 191.941406 253.058594 191.921875 C 253.027344 191.851562 252.644531 191.582031 252.546875 191.5625 C 252.492188 191.554688 252.382812 191.480469 252.308594 191.398438 C 252.109375 191.199219 252.003906 191.125 251.796875 191.050781 C 251.679688 191.015625 251.582031 190.945312 251.53125 190.871094 C 251.480469 190.796875 251.402344 190.738281 251.332031 190.722656 C 251.332031 190.722656 251.328125 190.722656 251.328125 190.722656 C 251.253906 190.710938 251.203125 190.667969 251.183594 190.609375 C 251.167969 190.558594 251.066406 190.449219 250.957031 190.367188 C 250.847656 190.28125 250.714844 190.160156 250.652344 190.09375 C 250.59375 190.03125 250.464844 189.9375 250.367188 189.882812 C 250.265625 189.835938 250.109375 189.710938 250.007812 189.613281 C 249.785156 189.386719 249.664062 189.3125 249.15625 189.070312 C 248.9375 188.964844 248.734375 188.851562 248.707031 188.816406 C 248.675781 188.78125 248.550781 188.679688 248.425781 188.585938 C 248.296875 188.496094 248.171875 188.394531 248.140625 188.355469 C 248.113281 188.324219 248.011719 188.246094 247.917969 188.1875 C 247.820312 188.125 247.699219 188.035156 247.648438 187.976562 C 247.59375 187.921875 247.519531 187.871094 247.492188 187.863281 C 247.433594 187.851562 247.089844 187.609375 246.839844 187.410156 C 246.789062 187.363281 246.714844 187.324219 246.679688 187.316406 C 246.644531 187.3125 246.5 187.207031 246.363281 187.085938 C 246.222656 186.960938 246.078125 186.855469 246.035156 186.847656 C 246 186.839844 245.953125 186.804688 245.941406 186.773438 C 245.933594 186.738281 245.828125 186.621094 245.71875 186.515625 C 245.609375 186.40625 245.480469 186.273438 245.429688 186.226562 C 245.363281 186.152344 245.226562 186.101562 244.84375 186.007812 C 244.566406 185.9375 244.203125 185.832031 244.039062 185.777344 C 243.5 185.589844 242.136719 185.273438 241.058594 185.0625 C 240.417969 184.9375 239.878906 184.851562 239.664062 184.847656 C 239.320312 184.84375 238.800781 184.808594 238.308594 184.761719 C 238.074219 184.738281 237.824219 184.730469 237.753906 184.742188 C 237.683594 184.75 237.484375 184.734375 237.304688 184.703125 C 237.128906 184.671875 236.890625 184.648438 236.769531 184.644531 C 236.652344 184.644531 236.40625 184.636719 236.230469 184.625 C 236.058594 184.613281 235.792969 184.601562 235.652344 184.601562 C 235.542969 184.601562 235.363281 184.582031 235.203125 184.550781 C 235.152344 184.539062 235.105469 184.53125 235.058594 184.519531 C 234.71875 184.433594 234.527344 184.328125 234.371094 184.152344 C 234.230469 183.996094 233.660156 183.675781 233.214844 183.503906 C 232.992188 183.421875 232.769531 183.320312 232.714844 183.289062 C 232.566406 183.199219 232.027344 182.953125 231.941406 182.9375 L 231.9375 182.9375 C 231.855469 182.921875 231.707031 182.761719 231.441406 182.394531 C 231.339844 182.257812 231.203125 182.074219 231.128906 181.988281 C 231.054688 181.894531 230.871094 181.652344 230.71875 181.441406 C 230.546875 181.195312 230.402344 181.039062 230.328125 181.003906 C 230.253906 180.976562 230.191406 180.957031 230.140625 180.945312 Z M 230.140625 180.945312 " fill-opacity="1" fill-rule="nonzero"/></g></g></g><g fill="#ffffff" fill-opacity="1"><g transform="translate(53.005156, 257.633978)"><g><path d="M 2.109375 -28.953125 L 12.453125 -28.953125 C 15.242188 -28.953125 17.515625 -28.207031 19.265625 -26.71875 C 21.023438 -25.238281 21.90625 -23.117188 21.90625 -20.359375 C 21.90625 -18.222656 21.367188 -16.4375 20.296875 -15 C 19.234375 -13.5625 17.789062 -12.550781 15.96875 -11.96875 L 25.9375 0 L 17.546875 0 L 8.703125 -11.4375 L 8.703125 0 L 2.109375 0 Z M 8.703125 -16.109375 L 9.46875 -16.109375 C 10.082031 -16.109375 10.597656 -16.117188 11.015625 -16.140625 C 11.441406 -16.160156 11.921875 -16.238281 12.453125 -16.375 C 12.992188 -16.519531 13.425781 -16.722656 13.75 -16.984375 C 14.082031 -17.242188 14.363281 -17.617188 14.59375 -18.109375 C 14.832031 -18.597656 14.953125 -19.191406 14.953125 -19.890625 C 14.953125 -20.597656 14.832031 -21.195312 14.59375 -21.6875 C 14.363281 -22.175781 14.082031 -22.550781 13.75 -22.8125 C 13.425781 -23.070312 12.992188 -23.269531 12.453125 -23.40625 C 11.921875 -23.550781 11.441406 -23.632812 11.015625 -23.65625 C 10.597656 -23.675781 10.082031 -23.6875 9.46875 -23.6875 L 8.703125 -23.6875 Z M 8.703125 -16.109375 "/></g></g></g><g fill="#ffffff" fill-opacity="1"><g transform="translate(76.37997, 257.633978)"><g><path d="M 7.96875 -18 L 7.96875 -9.4375 C 7.96875 -7.65625 8.234375 -6.390625 8.765625 -5.640625 C 9.304688 -4.898438 10.21875 -4.53125 11.5 -4.53125 C 12.789062 -4.53125 13.707031 -4.898438 14.25 -5.640625 C 14.789062 -6.390625 15.0625 -7.65625 15.0625 -9.4375 L 15.0625 -18 L 21.265625 -18 L 21.265625 -7.9375 C 21.265625 -4.9375 20.484375 -2.773438 18.921875 -1.453125 C 17.367188 -0.128906 14.894531 0.53125 11.5 0.53125 C 8.113281 0.53125 5.640625 -0.128906 4.078125 -1.453125 C 2.523438 -2.773438 1.75 -4.9375 1.75 -7.9375 L 1.75 -18 Z M 7.96875 -18 "/></g></g></g><g fill="#ffffff" fill-opacity="1"><g transform="translate(97.648921, 257.633978)"><g><path d="M 2.109375 0 L 2.109375 -18 L 8.3125 -18 L 8.3125 -15.40625 L 8.390625 -15.40625 C 8.429688 -15.5 8.503906 -15.613281 8.609375 -15.75 C 8.722656 -15.894531 8.953125 -16.140625 9.296875 -16.484375 C 9.648438 -16.835938 10.023438 -17.15625 10.421875 -17.4375 C 10.816406 -17.71875 11.332031 -17.96875 11.96875 -18.1875 C 12.601562 -18.414062 13.242188 -18.53125 13.890625 -18.53125 C 14.578125 -18.53125 15.242188 -18.4375 15.890625 -18.25 C 16.546875 -18.0625 17.03125 -17.875 17.34375 -17.6875 L 17.828125 -17.40625 L 15.234375 -12.140625 C 14.460938 -12.796875 13.382812 -13.125 12 -13.125 C 11.25 -13.125 10.601562 -12.957031 10.0625 -12.625 C 9.53125 -12.300781 9.148438 -11.90625 8.921875 -11.4375 C 8.703125 -10.96875 8.546875 -10.566406 8.453125 -10.234375 C 8.359375 -9.910156 8.3125 -9.65625 8.3125 -9.46875 L 8.3125 0 Z M 2.109375 0 "/></g></g></g><g fill="#ffffff" fill-opacity="1"><g transform="translate(113.372456, 257.633978)"><g><path d="M 3.328125 -2.21875 C 1.648438 -4.0625 0.8125 -6.316406 0.8125 -8.984375 C 0.8125 -11.648438 1.648438 -13.90625 3.328125 -15.75 C 5.015625 -17.601562 7.15625 -18.53125 9.75 -18.53125 C 12.132812 -18.53125 14.101562 -17.78125 15.65625 -16.28125 L 15.65625 -18 L 21.859375 -18 L 21.859375 0 L 15.71875 0 L 15.71875 -2.03125 L 15.65625 -2.03125 C 14.101562 -0.320312 12.132812 0.53125 9.75 0.53125 C 7.15625 0.53125 5.015625 -0.382812 3.328125 -2.21875 Z M 8.609375 -12.03125 C 7.804688 -11.238281 7.40625 -10.222656 7.40625 -8.984375 C 7.40625 -7.742188 7.789062 -6.726562 8.5625 -5.9375 C 9.332031 -5.15625 10.347656 -4.765625 11.609375 -4.765625 C 12.828125 -4.765625 13.828125 -5.160156 14.609375 -5.953125 C 15.398438 -6.753906 15.796875 -7.765625 15.796875 -8.984375 C 15.796875 -10.222656 15.390625 -11.238281 14.578125 -12.03125 C 13.773438 -12.832031 12.785156 -13.234375 11.609375 -13.234375 C 10.421875 -13.234375 9.421875 -12.832031 8.609375 -12.03125 Z M 8.609375 -12.03125 "/></g></g></g><g fill="#ffffff" fill-opacity="1"><g transform="translate(135.589047, 257.633978)"><g><path d="M 2.109375 0 L 2.109375 -30.1875 L 8.3125 -30.1875 L 8.3125 0 Z M 2.109375 0 "/></g></g></g><g fill="#ffffff" fill-opacity="1"><g transform="translate(144.257963, 257.633978)"><g><path d="M 12.78125 -29.484375 C 14.34375 -29.484375 15.875 -29.253906 17.375 -28.796875 C 18.875 -28.335938 19.984375 -27.882812 20.703125 -27.4375 L 21.765625 -26.734375 L 19.09375 -21.484375 C 18.882812 -21.617188 18.59375 -21.796875 18.21875 -22.015625 C 17.84375 -22.242188 17.140625 -22.546875 16.109375 -22.921875 C 15.078125 -23.296875 14.117188 -23.484375 13.234375 -23.484375 C 12.128906 -23.484375 11.28125 -23.25 10.6875 -22.78125 C 10.09375 -22.3125 9.796875 -21.675781 9.796875 -20.875 C 9.796875 -20.476562 9.9375 -20.109375 10.21875 -19.765625 C 10.5 -19.429688 10.976562 -19.070312 11.65625 -18.6875 C 12.332031 -18.300781 12.925781 -17.988281 13.4375 -17.75 C 13.957031 -17.519531 14.753906 -17.171875 15.828125 -16.703125 C 17.703125 -15.910156 19.296875 -14.828125 20.609375 -13.453125 C 21.929688 -12.085938 22.59375 -10.539062 22.59375 -8.8125 C 22.59375 -7.144531 22.296875 -5.691406 21.703125 -4.453125 C 21.109375 -3.210938 20.289062 -2.238281 19.25 -1.53125 C 18.207031 -0.832031 17.050781 -0.316406 15.78125 0.015625 C 14.519531 0.359375 13.15625 0.53125 11.6875 0.53125 C 10.425781 0.53125 9.1875 0.398438 7.96875 0.140625 C 6.75 -0.117188 5.726562 -0.441406 4.90625 -0.828125 C 4.09375 -1.210938 3.359375 -1.59375 2.703125 -1.96875 C 2.046875 -2.34375 1.566406 -2.65625 1.265625 -2.90625 L 0.8125 -3.296875 L 4.109375 -8.84375 C 4.390625 -8.613281 4.773438 -8.316406 5.265625 -7.953125 C 5.753906 -7.585938 6.625 -7.097656 7.875 -6.484375 C 9.125 -5.878906 10.226562 -5.578125 11.1875 -5.578125 C 13.976562 -5.578125 15.375 -6.523438 15.375 -8.421875 C 15.375 -8.816406 15.273438 -9.179688 15.078125 -9.515625 C 14.878906 -9.859375 14.523438 -10.195312 14.015625 -10.53125 C 13.515625 -10.875 13.070312 -11.144531 12.6875 -11.34375 C 12.300781 -11.550781 11.664062 -11.859375 10.78125 -12.265625 C 9.90625 -12.671875 9.257812 -12.976562 8.84375 -13.1875 C 7.09375 -14.0625 5.734375 -15.144531 4.765625 -16.4375 C 3.804688 -17.738281 3.328125 -19.140625 3.328125 -20.640625 C 3.328125 -23.234375 4.285156 -25.351562 6.203125 -27 C 8.128906 -28.65625 10.320312 -29.484375 12.78125 -29.484375 Z M 12.78125 -29.484375 "/></g></g></g><g fill="#ffffff" fill-opacity="1"><g transform="translate(166.088477, 257.633978)"><g><path d="M 20.625 -15.765625 C 22.3125 -13.929688 23.15625 -11.679688 23.15625 -9.015625 C 23.15625 -6.347656 22.3125 -4.085938 20.625 -2.234375 C 18.945312 -0.390625 16.8125 0.53125 14.21875 0.53125 C 11.832031 0.53125 9.863281 -0.21875 8.3125 -1.71875 L 8.3125 9.125 L 2.109375 9.125 L 2.109375 -18 L 8.25 -18 L 8.25 -15.96875 L 8.3125 -15.96875 C 9.863281 -17.675781 11.832031 -18.53125 14.21875 -18.53125 C 16.8125 -18.53125 18.945312 -17.609375 20.625 -15.765625 Z M 15.34375 -5.953125 C 16.15625 -6.753906 16.5625 -7.773438 16.5625 -9.015625 C 16.5625 -10.253906 16.175781 -11.265625 15.40625 -12.046875 C 14.632812 -12.835938 13.617188 -13.234375 12.359375 -13.234375 C 11.140625 -13.234375 10.132812 -12.832031 9.34375 -12.03125 C 8.5625 -11.238281 8.171875 -10.234375 8.171875 -9.015625 C 8.171875 -7.773438 8.570312 -6.753906 9.375 -5.953125 C 10.1875 -5.160156 11.179688 -4.765625 12.359375 -4.765625 C 13.546875 -4.765625 14.539062 -5.160156 15.34375 -5.953125 Z M 15.34375 -5.953125 "/></g></g></g><g fill="#ffffff" fill-opacity="1"><g transform="translate(188.305073, 257.633978)"><g><path d="M 3.8125 -2.140625 C 1.8125 -3.921875 0.8125 -6.203125 0.8125 -8.984375 C 0.8125 -11.765625 1.847656 -14.050781 3.921875 -15.84375 C 6.003906 -17.632812 8.582031 -18.53125 11.65625 -18.53125 C 14.664062 -18.53125 17.207031 -17.628906 19.28125 -15.828125 C 21.351562 -14.023438 22.390625 -11.742188 22.390625 -8.984375 C 22.390625 -6.222656 21.375 -3.945312 19.34375 -2.15625 C 17.320312 -0.363281 14.757812 0.53125 11.65625 0.53125 C 8.425781 0.53125 5.8125 -0.359375 3.8125 -2.140625 Z M 8.609375 -12.03125 C 7.804688 -11.238281 7.40625 -10.222656 7.40625 -8.984375 C 7.40625 -7.742188 7.789062 -6.726562 8.5625 -5.9375 C 9.332031 -5.15625 10.347656 -4.765625 11.609375 -4.765625 C 12.828125 -4.765625 13.828125 -5.160156 14.609375 -5.953125 C 15.398438 -6.753906 15.796875 -7.765625 15.796875 -8.984375 C 15.796875 -10.222656 15.390625 -11.238281 14.578125 -12.03125 C 13.773438 -12.832031 12.785156 -13.234375 11.609375 -13.234375 C 10.421875 -13.234375 9.421875 -12.832031 8.609375 -12.03125 Z M 8.609375 -12.03125 "/></g></g></g><g fill="#ffffff" fill-opacity="1"><g transform="translate(209.749515, 257.633978)"><g><path d="M 2.109375 0 L 2.109375 -18 L 8.3125 -18 L 8.3125 -15.40625 L 8.390625 -15.40625 C 8.429688 -15.5 8.503906 -15.613281 8.609375 -15.75 C 8.722656 -15.894531 8.953125 -16.140625 9.296875 -16.484375 C 9.648438 -16.835938 10.023438 -17.15625 10.421875 -17.4375 C 10.816406 -17.71875 11.332031 -17.96875 11.96875 -18.1875 C 12.601562 -18.414062 13.242188 -18.53125 13.890625 -18.53125 C 14.578125 -18.53125 15.242188 -18.4375 15.890625 -18.25 C 16.546875 -18.0625 17.03125 -17.875 17.34375 -17.6875 L 17.828125 -17.40625 L 15.234375 -12.140625 C 14.460938 -12.796875 13.382812 -13.125 12 -13.125 C 11.25 -13.125 10.601562 -12.957031 10.0625 -12.625 C 9.53125 -12.300781 9.148438 -11.90625 8.921875 -11.4375 C 8.703125 -10.96875 8.546875 -10.566406 8.453125 -10.234375 C 8.359375 -9.910156 8.3125 -9.65625 8.3125 -9.46875 L 8.3125 0 Z M 2.109375 0 "/></g></g></g><g fill="#ffffff" fill-opacity="1"><g transform="translate(225.473055, 257.633978)"><g><path d="M 3.15625 -18 L 3.15625 -24.703125 L 9.375 -24.703125 L 9.375 -18 L 13.15625 -18 L 13.15625 -13.265625 L 9.375 -13.265625 L 9.375 -7.546875 C 9.375 -5.878906 9.84375 -5.046875 10.78125 -5.046875 C 11.007812 -5.046875 11.25 -5.09375 11.5 -5.1875 C 11.757812 -5.28125 11.960938 -5.375 12.109375 -5.46875 L 12.3125 -5.609375 L 13.859375 -0.59375 C 12.523438 0.15625 11.003906 0.53125 9.296875 0.53125 C 8.128906 0.53125 7.125 0.328125 6.28125 -0.078125 C 5.4375 -0.492188 4.796875 -1.046875 4.359375 -1.734375 C 3.929688 -2.421875 3.625 -3.144531 3.4375 -3.90625 C 3.25 -4.664062 3.15625 -5.484375 3.15625 -6.359375 L 3.15625 -13.265625 L 0.5625 -13.265625 L 0.5625 -18 Z M 3.15625 -18 "/></g></g></g><g fill="#ffffff" fill-opacity="1"><g transform="translate(237.581544, 257.633978)"><g><path d="M 9.9375 -18.53125 C 10.957031 -18.53125 11.972656 -18.410156 12.984375 -18.171875 C 13.992188 -17.941406 14.742188 -17.710938 15.234375 -17.484375 L 15.96875 -17.125 L 13.9375 -13.0625 C 12.53125 -13.800781 11.195312 -14.171875 9.9375 -14.171875 C 9.226562 -14.171875 8.726562 -14.09375 8.4375 -13.9375 C 8.144531 -13.789062 8 -13.507812 8 -13.09375 C 8 -13 8.007812 -12.90625 8.03125 -12.8125 C 8.0625 -12.71875 8.109375 -12.628906 8.171875 -12.546875 C 8.242188 -12.460938 8.304688 -12.390625 8.359375 -12.328125 C 8.421875 -12.273438 8.519531 -12.210938 8.65625 -12.140625 C 8.800781 -12.066406 8.914062 -12.015625 9 -11.984375 C 9.082031 -11.953125 9.21875 -11.898438 9.40625 -11.828125 C 9.59375 -11.753906 9.734375 -11.695312 9.828125 -11.65625 C 9.921875 -11.625 10.078125 -11.570312 10.296875 -11.5 C 10.523438 -11.4375 10.695312 -11.394531 10.8125 -11.375 C 11.53125 -11.15625 12.160156 -10.914062 12.703125 -10.65625 C 13.242188 -10.40625 13.8125 -10.054688 14.40625 -9.609375 C 15 -9.171875 15.457031 -8.609375 15.78125 -7.921875 C 16.113281 -7.242188 16.28125 -6.472656 16.28125 -5.609375 C 16.28125 -1.515625 13.4375 0.53125 7.75 0.53125 C 6.46875 0.53125 5.242188 0.332031 4.078125 -0.0625 C 2.921875 -0.46875 2.085938 -0.867188 1.578125 -1.265625 L 0.8125 -1.890625 L 3.328125 -6.140625 C 3.515625 -5.972656 3.757812 -5.78125 4.0625 -5.5625 C 4.375 -5.34375 4.925781 -5.039062 5.71875 -4.65625 C 6.507812 -4.269531 7.203125 -4.078125 7.796875 -4.078125 C 9.078125 -4.078125 9.71875 -4.507812 9.71875 -5.375 C 9.71875 -5.769531 9.550781 -6.078125 9.21875 -6.296875 C 8.894531 -6.515625 8.34375 -6.765625 7.5625 -7.046875 C 6.78125 -7.328125 6.164062 -7.585938 5.71875 -7.828125 C 4.59375 -8.410156 3.703125 -9.070312 3.046875 -9.8125 C 2.398438 -10.550781 2.078125 -11.523438 2.078125 -12.734375 C 2.078125 -14.554688 2.78125 -15.976562 4.1875 -17 C 5.601562 -18.019531 7.519531 -18.53125 9.9375 -18.53125 Z M 9.9375 -18.53125 "/></g></g></g><g fill="#ffffff" fill-opacity="1"><g transform="translate(253.09449, 257.633978)"><g><path d="M 2.109375 -28.953125 L 12.453125 -28.953125 C 15.242188 -28.953125 17.515625 -28.207031 19.265625 -26.71875 C 21.023438 -25.238281 21.90625 -23.117188 21.90625 -20.359375 C 21.90625 -18.222656 21.367188 -16.4375 20.296875 -15 C 19.234375 -13.5625 17.789062 -12.550781 15.96875 -11.96875 L 25.9375 0 L 17.546875 0 L 8.703125 -11.4375 L 8.703125 0 L 2.109375 0 Z M 8.703125 -16.109375 L 9.46875 -16.109375 C 10.082031 -16.109375 10.597656 -16.117188 11.015625 -16.140625 C 11.441406 -16.160156 11.921875 -16.238281 12.453125 -16.375 C 12.992188 -16.519531 13.425781 -16.722656 13.75 -16.984375 C 14.082031 -17.242188 14.363281 -17.617188 14.59375 -18.109375 C 14.832031 -18.597656 14.953125 -19.191406 14.953125 -19.890625 C 14.953125 -20.597656 14.832031 -21.195312 14.59375 -21.6875 C 14.363281 -22.175781 14.082031 -22.550781 13.75 -22.8125 C 13.425781 -23.070312 12.992188 -23.269531 12.453125 -23.40625 C 11.921875 -23.550781 11.441406 -23.632812 11.015625 -23.65625 C 10.597656 -23.675781 10.082031 -23.6875 9.46875 -23.6875 L 8.703125 -23.6875 Z M 8.703125 -16.109375 "/></g></g></g><g fill="#ffffff" fill-opacity="1"><g transform="translate(276.469297, 257.633978)"><g><path d="M 2.703125 -28.03125 C 3.429688 -28.757812 4.296875 -29.125 5.296875 -29.125 C 6.304688 -29.125 7.171875 -28.757812 7.890625 -28.03125 C 8.617188 -27.3125 8.984375 -26.445312 8.984375 -25.4375 C 8.984375 -24.4375 8.617188 -23.570312 7.890625 -22.84375 C 7.171875 -22.125 6.304688 -21.765625 5.296875 -21.765625 C 4.296875 -21.765625 3.429688 -22.125 2.703125 -22.84375 C 1.972656 -23.570312 1.609375 -24.4375 1.609375 -25.4375 C 1.609375 -26.445312 1.972656 -27.3125 2.703125 -28.03125 Z M 2.109375 -18 L 2.109375 0 L 8.3125 0 L 8.3125 -18 Z M 2.109375 -18 "/></g></g></g><g fill="#ffffff" fill-opacity="1"><g transform="translate(285.313703, 257.633978)"><g><path d="M 9.9375 -18.53125 C 10.957031 -18.53125 11.972656 -18.410156 12.984375 -18.171875 C 13.992188 -17.941406 14.742188 -17.710938 15.234375 -17.484375 L 15.96875 -17.125 L 13.9375 -13.0625 C 12.53125 -13.800781 11.195312 -14.171875 9.9375 -14.171875 C 9.226562 -14.171875 8.726562 -14.09375 8.4375 -13.9375 C 8.144531 -13.789062 8 -13.507812 8 -13.09375 C 8 -13 8.007812 -12.90625 8.03125 -12.8125 C 8.0625 -12.71875 8.109375 -12.628906 8.171875 -12.546875 C 8.242188 -12.460938 8.304688 -12.390625 8.359375 -12.328125 C 8.421875 -12.273438 8.519531 -12.210938 8.65625 -12.140625 C 8.800781 -12.066406 8.914062 -12.015625 9 -11.984375 C 9.082031 -11.953125 9.21875 -11.898438 9.40625 -11.828125 C 9.59375 -11.753906 9.734375 -11.695312 9.828125 -11.65625 C 9.921875 -11.625 10.078125 -11.570312 10.296875 -11.5 C 10.523438 -11.4375 10.695312 -11.394531 10.8125 -11.375 C 11.53125 -11.15625 12.160156 -10.914062 12.703125 -10.65625 C 13.242188 -10.40625 13.8125 -10.054688 14.40625 -9.609375 C 15 -9.171875 15.457031 -8.609375 15.78125 -7.921875 C 16.113281 -7.242188 16.28125 -6.472656 16.28125 -5.609375 C 16.28125 -1.515625 13.4375 0.53125 7.75 0.53125 C 6.46875 0.53125 5.242188 0.332031 4.078125 -0.0625 C 2.921875 -0.46875 2.085938 -0.867188 1.578125 -1.265625 L 0.8125 -1.890625 L 3.328125 -6.140625 C 3.515625 -5.972656 3.757812 -5.78125 4.0625 -5.5625 C 4.375 -5.34375 4.925781 -5.039062 5.71875 -4.65625 C 6.507812 -4.269531 7.203125 -4.078125 7.796875 -4.078125 C 9.078125 -4.078125 9.71875 -4.507812 9.71875 -5.375 C 9.71875 -5.769531 9.550781 -6.078125 9.21875 -6.296875 C 8.894531 -6.515625 8.34375 -6.765625 7.5625 -7.046875 C 6.78125 -7.328125 6.164062 -7.585938 5.71875 -7.828125 C 4.59375 -8.410156 3.703125 -9.070312 3.046875 -9.8125 C 2.398438 -10.550781 2.078125 -11.523438 2.078125 -12.734375 C 2.078125 -14.554688 2.78125 -15.976562 4.1875 -17 C 5.601562 -18.019531 7.519531 -18.53125 9.9375 -18.53125 Z M 9.9375 -18.53125 "/></g></g></g><g fill="#ffffff" fill-opacity="1"><g transform="translate(300.826649, 257.633978)"><g><path d="M 20.3125 -8.140625 L 7.265625 -8.140625 C 7.265625 -6.878906 7.671875 -5.941406 8.484375 -5.328125 C 9.304688 -4.722656 10.195312 -4.421875 11.15625 -4.421875 C 12.164062 -4.421875 12.960938 -4.554688 13.546875 -4.828125 C 14.128906 -5.097656 14.796875 -5.628906 15.546875 -6.421875 L 20.03125 -4.171875 C 18.164062 -1.035156 15.054688 0.53125 10.703125 0.53125 C 7.984375 0.53125 5.65625 -0.394531 3.71875 -2.25 C 1.78125 -4.113281 0.8125 -6.359375 0.8125 -8.984375 C 0.8125 -11.609375 1.78125 -13.851562 3.71875 -15.71875 C 5.65625 -17.59375 7.984375 -18.53125 10.703125 -18.53125 C 13.554688 -18.53125 15.878906 -17.703125 17.671875 -16.046875 C 19.460938 -14.398438 20.359375 -12.046875 20.359375 -8.984375 C 20.359375 -8.566406 20.34375 -8.285156 20.3125 -8.140625 Z M 7.4375 -11.578125 L 14.28125 -11.578125 C 14.144531 -12.515625 13.773438 -13.234375 13.171875 -13.734375 C 12.578125 -14.242188 11.8125 -14.5 10.875 -14.5 C 9.84375 -14.5 9.023438 -14.226562 8.421875 -13.6875 C 7.816406 -13.144531 7.488281 -12.441406 7.4375 -11.578125 Z M 7.4375 -11.578125 "/></g></g></g></svg>